<svg width="472" height="75" viewBox="0 0 472 75" fill="none" xmlns="http://www.w3.org/2000/svg">
<path d="M35.0779 18.2429C35.0779 22.5238 33.6017 26.0912 30.6494 28.9451C27.7462 31.7498 23.2932 33.1522 17.2901 33.1522H7.39978V54.6304H0.683233V3.18604H17.2901C23.0963 3.18604 27.5002 4.5884 30.5018 7.39311C33.5525 10.1978 35.0779 13.8144 35.0779 18.2429ZM17.2901 27.6166C21.0297 27.6166 23.7852 26.8047 25.5566 25.1809C27.328 23.5571 28.2137 21.2445 28.2137 18.2429C28.2137 11.8954 24.5725 8.72166 17.2901 8.72166H7.39978V27.6166H17.2901ZM63.5015 13.4454C66.5523 13.4454 69.3078 14.1097 71.768 15.4382C74.2283 16.7175 76.1473 18.6612 77.5251 21.2691C78.952 23.8769 79.6655 27.0507 79.6655 30.7903V54.6304H73.0228V31.7498C73.0228 27.715 72.0141 24.6396 69.9966 22.5238C67.9792 20.3588 65.2237 19.2762 61.7301 19.2762C58.1873 19.2762 55.358 20.3834 53.2422 22.5976C51.1756 24.8118 50.1422 28.0348 50.1422 32.2665V54.6304H43.4257V0.0122877H50.1422V19.9405C51.4708 17.8739 53.2914 16.2747 55.604 15.143C57.9659 14.0112 60.5984 13.4454 63.5015 13.4454ZM108.277 55.2946C104.488 55.2946 101.044 54.4335 97.944 52.7114C94.8933 50.9892 92.4822 48.5535 90.7108 45.4043C88.9886 42.206 88.1275 38.5156 88.1275 34.3331C88.1275 30.1998 89.0132 26.5586 90.7846 23.4095C92.6052 20.2111 95.0655 17.7755 98.1654 16.1025C101.265 14.3803 104.734 13.5192 108.572 13.5192C112.41 13.5192 115.879 14.3803 118.979 16.1025C122.079 17.7755 124.515 20.1865 126.286 23.3357C128.107 26.4848 129.017 30.1506 129.017 34.3331C129.017 38.5156 128.082 42.206 126.213 45.4043C124.392 48.5535 121.907 50.9892 118.758 52.7114C115.609 54.4335 112.115 55.2946 108.277 55.2946ZM108.277 49.39C110.688 49.39 112.952 48.8241 115.068 47.6924C117.183 46.5607 118.881 44.8631 120.16 42.5996C121.489 40.3362 122.153 37.5807 122.153 34.3331C122.153 31.0855 121.513 28.33 120.234 26.0666C118.955 23.8031 117.282 22.1301 115.215 21.0476C113.149 19.9159 110.91 19.35 108.499 19.35C106.038 19.35 103.775 19.9159 101.708 21.0476C99.6908 22.1301 98.067 23.8031 96.8369 26.0666C95.6068 28.33 94.9917 31.0855 94.9917 34.3331C94.9917 37.6299 95.5822 40.41 96.7631 42.6734C97.9932 44.9369 99.617 46.6345 101.634 47.7662C103.652 48.8487 105.866 49.39 108.277 49.39ZM146.041 19.7191V43.5591C146.041 45.5274 146.459 46.9297 147.296 47.7662C148.132 48.5535 149.584 48.9471 151.65 48.9471H156.596V54.6304H150.543C146.804 54.6304 143.999 53.7693 142.129 52.0471C140.259 50.3249 139.324 47.4956 139.324 43.5591V19.7191H134.084V14.1835H139.324V3.99793H146.041V14.1835H156.596V19.7191H146.041ZM182.374 55.2946C178.585 55.2946 175.14 54.4335 172.041 52.7114C168.99 50.9892 166.579 48.5535 164.807 45.4043C163.085 42.206 162.224 38.5156 162.224 34.3331C162.224 30.1998 163.11 26.5586 164.881 23.4095C166.702 20.2111 169.162 17.7755 172.262 16.1025C175.362 14.3803 178.831 13.5192 182.669 13.5192C186.507 13.5192 189.976 14.3803 193.076 16.1025C196.176 17.7755 198.612 20.1865 200.383 23.3357C202.203 26.4848 203.114 30.1506 203.114 34.3331C203.114 38.5156 202.179 42.206 200.309 45.4043C198.488 48.5535 196.004 50.9892 192.854 52.7114C189.705 54.4335 186.212 55.2946 182.374 55.2946ZM182.374 49.39C184.785 49.39 187.048 48.8241 189.164 47.6924C191.28 46.5607 192.977 44.8631 194.257 42.5996C195.585 40.3362 196.25 37.5807 196.25 34.3331C196.25 31.0855 195.61 28.33 194.331 26.0666C193.051 23.8031 191.378 22.1301 189.312 21.0476C187.245 19.9159 185.006 19.35 182.595 19.35C180.135 19.35 177.871 19.9159 175.805 21.0476C173.787 22.1301 172.164 23.8031 170.933 26.0666C169.703 28.33 169.088 31.0855 169.088 34.3331C169.088 37.6299 169.679 40.41 170.86 42.6734C172.09 44.9369 173.714 46.6345 175.731 47.7662C177.748 48.8487 179.963 49.39 182.374 49.39ZM228.626 13.5192C232.119 13.5192 235.17 14.2819 237.778 15.8072C240.435 17.3326 242.403 19.2516 243.682 21.5643V14.1835H250.473V55.5161C250.473 59.2065 249.685 62.4786 248.111 65.3326C246.536 68.2357 244.273 70.4991 241.321 72.1229C238.417 73.7467 235.022 74.5586 231.135 74.5586C225.821 74.5586 221.392 73.3039 217.85 70.7944C214.307 68.2849 212.215 64.8651 211.576 60.535H218.219C218.957 62.9953 220.482 64.9635 222.795 66.4397C225.107 67.9651 227.887 68.7277 231.135 68.7277C234.825 68.7277 237.827 67.5714 240.14 65.2588C242.501 62.9461 243.682 59.6985 243.682 55.5161V47.0281C242.354 49.39 240.386 51.3582 237.778 52.9328C235.17 54.5074 232.119 55.2946 228.626 55.2946C225.034 55.2946 221.761 54.4089 218.809 52.6375C215.906 50.8662 213.618 48.3813 211.945 45.1829C210.272 41.9846 209.435 38.3434 209.435 34.2593C209.435 30.126 210.272 26.5094 211.945 23.4095C213.618 20.2603 215.906 17.8247 218.809 16.1025C221.761 14.3803 225.034 13.5192 228.626 13.5192ZM243.682 34.3331C243.682 31.2824 243.067 28.6253 241.837 26.3618C240.607 24.0984 238.934 22.3762 236.818 21.1952C234.752 19.9651 232.464 19.35 229.954 19.35C227.445 19.35 225.157 19.9405 223.09 21.1214C221.023 22.3024 219.375 24.0246 218.145 26.288C216.915 28.5515 216.3 31.2086 216.3 34.2593C216.3 37.3592 216.915 40.0655 218.145 42.3782C219.375 44.6417 221.023 46.3885 223.09 47.6186C225.157 48.7995 227.445 49.39 229.954 49.39C232.464 49.39 234.752 48.7995 236.818 47.6186C238.934 46.3885 240.607 44.6417 241.837 42.3782C243.067 40.0655 243.682 37.3838 243.682 34.3331ZM268.54 20.7524C269.721 18.4397 271.394 16.6437 273.559 15.3644C275.773 14.0851 278.455 13.4454 281.604 13.4454V20.3834H279.832C272.304 20.3834 268.54 24.4674 268.54 32.6355V54.6304H261.823V14.1835H268.54V20.7524ZM286.847 34.2593C286.847 30.126 287.684 26.5094 289.357 23.4095C291.03 20.2603 293.318 17.8247 296.221 16.1025C299.173 14.3803 302.446 13.5192 306.038 13.5192C309.58 13.5192 312.656 14.2819 315.264 15.8072C317.872 17.3326 319.815 19.2516 321.095 21.5643V14.1835H327.885V54.6304H321.095V47.1019C319.766 49.4638 317.773 51.432 315.116 53.0066C312.508 54.532 309.457 55.2946 305.964 55.2946C302.372 55.2946 299.124 54.4089 296.221 52.6375C293.318 50.8662 291.03 48.3813 289.357 45.1829C287.684 41.9846 286.847 38.3434 286.847 34.2593ZM321.095 34.3331C321.095 31.2824 320.479 28.6253 319.249 26.3618C318.019 24.0984 316.346 22.3762 314.23 21.1952C312.164 19.9651 309.876 19.35 307.366 19.35C304.857 19.35 302.569 19.9405 300.502 21.1214C298.435 22.3024 296.787 24.0246 295.557 26.288C294.327 28.5515 293.712 31.2086 293.712 34.2593C293.712 37.3592 294.327 40.0655 295.557 42.3782C296.787 44.6417 298.435 46.3885 300.502 47.6186C302.569 48.7995 304.857 49.39 307.366 49.39C309.876 49.39 312.164 48.7995 314.23 47.6186C316.346 46.3885 318.019 44.6417 319.249 42.3782C320.479 40.0655 321.095 37.3838 321.095 34.3331ZM345.952 21.6381C347.28 19.3254 349.249 17.4064 351.856 15.8811C354.514 14.3065 357.589 13.5192 361.082 13.5192C364.674 13.5192 367.922 14.3803 370.825 16.1025C373.777 17.8247 376.09 20.2603 377.763 23.4095C379.436 26.5094 380.273 30.126 380.273 34.2593C380.273 38.3434 379.436 41.9846 377.763 45.1829C376.09 48.3813 373.777 50.8662 370.825 52.6375C367.922 54.4089 364.674 55.2946 361.082 55.2946C357.638 55.2946 354.587 54.532 351.93 53.0066C349.322 51.432 347.33 49.4884 345.952 47.1757V73.8205H339.235V14.1835H345.952V21.6381ZM373.408 34.2593C373.408 31.2086 372.793 28.5515 371.563 26.288C370.333 24.0246 368.66 22.3024 366.544 21.1214C364.478 19.9405 362.19 19.35 359.68 19.35C357.22 19.35 354.932 19.9651 352.816 21.1952C350.749 22.3762 349.076 24.123 347.797 26.4356C346.567 28.6991 345.952 31.3316 345.952 34.3331C345.952 37.3838 346.567 40.0655 347.797 42.3782C349.076 44.6417 350.749 46.3885 352.816 47.6186C354.932 48.7995 357.22 49.39 359.68 49.39C362.19 49.39 364.478 48.7995 366.544 47.6186C368.66 46.3885 370.333 44.6417 371.563 42.3782C372.793 40.0655 373.408 37.3592 373.408 34.2593ZM409.189 13.4454C412.24 13.4454 414.995 14.1097 417.456 15.4382C419.916 16.7175 421.835 18.6612 423.213 21.2691C424.64 23.8769 425.353 27.0507 425.353 30.7903V54.6304H418.711V31.7498C418.711 27.715 417.702 24.6396 415.684 22.5238C413.667 20.3588 410.911 19.2762 407.418 19.2762C403.875 19.2762 401.046 20.3834 398.93 22.5976C396.863 24.8118 395.83 28.0348 395.83 32.2665V54.6304H389.113V0.0122877H395.83V19.9405C397.159 17.8739 398.979 16.2747 401.292 15.143C403.654 14.0112 406.286 13.4454 409.189 13.4454ZM471.162 14.1835L446.805 73.6729H439.868L447.839 54.1875L431.527 14.1835H438.982L451.677 46.9543L464.224 14.1835H471.162Z" fill="black"/>
</svg>
