<svg width="459" height="58" viewBox="0 0 459 58" fill="none" xmlns="http://www.w3.org/2000/svg">
<path d="M17.9949 57.5167C14.5997 57.5167 11.5489 56.9262 8.84263 55.7453C6.18553 54.5151 4.0943 52.8421 2.56893 50.7263C1.04356 48.5613 0.256274 46.0764 0.207069 43.2717H7.36647C7.61249 45.6827 8.5966 47.7248 10.3188 49.3978C12.0902 51.0215 14.6489 51.8334 17.9949 51.8334C21.1932 51.8334 23.7027 51.0461 25.5233 49.4716C27.3931 47.8478 28.328 45.7812 28.328 43.2717C28.328 41.3035 27.7867 39.7043 26.7042 38.4741C25.6217 37.244 24.2686 36.3091 22.6448 35.6694C21.021 35.0298 18.8313 34.3409 16.0758 33.6028C12.6807 32.7171 9.94975 31.8314 7.88312 30.9457C5.8657 30.06 4.1189 28.6822 2.64274 26.8124C1.21578 24.8934 0.502302 22.3347 0.502302 19.1364C0.502302 16.3317 1.21578 13.8468 2.64274 11.6818C4.0697 9.51671 6.06252 7.84372 8.62121 6.66279C11.2291 5.48186 14.206 4.89139 17.552 4.89139C22.3741 4.89139 26.3106 6.09693 29.3613 8.508C32.4613 10.9191 34.2081 14.1174 34.6017 18.1031H27.2209C26.9749 16.1348 25.9415 14.4127 24.1209 12.9365C22.3003 11.4111 19.8893 10.6484 16.8877 10.6484C14.083 10.6484 11.795 11.3865 10.0236 12.8627C8.25217 14.2896 7.36647 16.3071 7.36647 18.915C7.36647 20.7848 7.88312 22.3101 8.91644 23.4911C9.99896 24.672 11.3029 25.5823 12.8283 26.222C14.4029 26.8124 16.5925 27.5013 19.3972 28.2886C22.7924 29.2235 25.5233 30.1584 27.5899 31.0933C29.6566 31.979 31.4279 33.3814 32.9041 35.3004C34.3803 37.1702 35.1184 39.7289 35.1184 42.9764C35.1184 45.4859 34.4541 47.8478 33.1255 50.062C31.797 52.2763 29.8288 54.0723 27.2209 55.45C24.613 56.8278 21.5376 57.5167 17.9949 57.5167ZM62.6425 57.6643C58.8537 57.6643 55.4093 56.8032 52.3093 55.081C49.2586 53.3588 46.8475 50.9231 45.0761 47.774C43.3539 44.5756 42.4928 40.8852 42.4928 36.7027C42.4928 32.5695 43.3785 28.9283 45.1499 25.7791C46.9705 22.5808 49.4308 20.1451 52.5308 18.4721C55.6307 16.7499 59.0997 15.8888 62.9377 15.8888C66.7757 15.8888 70.2447 16.7499 73.3447 18.4721C76.4446 20.1451 78.8803 22.5562 80.6517 25.7053C82.4723 28.8545 83.3826 32.5203 83.3826 36.7027C83.3826 40.8852 82.4477 44.5756 80.5779 47.774C78.7573 50.9231 76.2724 53.3588 73.1232 55.081C69.9741 56.8032 66.4805 57.6643 62.6425 57.6643ZM62.6425 51.7596C65.0535 51.7596 67.317 51.1938 69.4328 50.062C71.5487 48.9303 73.2463 47.2327 74.5256 44.9693C75.8542 42.7058 76.5184 39.9503 76.5184 36.7027C76.5184 33.4552 75.8788 30.6997 74.5994 28.4362C73.3201 26.1728 71.6471 24.4998 69.5805 23.4173C67.5138 22.2855 65.275 21.7197 62.8639 21.7197C60.4036 21.7197 58.1402 22.2855 56.0735 23.4173C54.0561 24.4998 52.4323 26.1728 51.2022 28.4362C49.9721 30.6997 49.357 33.4552 49.357 36.7027C49.357 39.9995 49.9475 42.7796 51.1284 45.0431C52.3585 47.3065 53.9823 49.0041 55.9997 50.1358C58.0172 51.2184 60.2314 51.7596 62.6425 51.7596ZM89.7041 36.7027C89.7041 32.5203 90.5406 28.8791 92.2136 25.7791C93.8866 22.63 96.1993 20.1943 99.1516 18.4721C102.153 16.7499 105.573 15.8888 109.411 15.8888C114.381 15.8888 118.465 17.0944 121.663 19.5054C124.911 21.9165 127.051 25.2625 128.084 29.5433H120.851C120.162 27.0831 118.809 25.1394 116.792 23.7125C114.824 22.2855 112.363 21.5721 109.411 21.5721C105.573 21.5721 102.473 22.9006 100.111 25.5577C97.7492 28.1656 96.5683 31.8806 96.5683 36.7027C96.5683 41.5741 97.7492 45.3383 100.111 47.9954C102.473 50.6525 105.573 51.981 109.411 51.981C112.363 51.981 114.824 51.2922 116.792 49.9144C118.76 48.5367 120.113 46.5684 120.851 44.0098H128.084C127.002 48.143 124.837 51.4644 121.589 53.9739C118.342 56.4341 114.282 57.6643 109.411 57.6643C105.573 57.6643 102.153 56.8032 99.1516 55.081C96.1993 53.3588 93.8866 50.9231 92.2136 47.774C90.5406 44.6248 89.7041 40.9344 89.7041 36.7027ZM140.515 9.98416C139.236 9.98416 138.153 9.54131 137.268 8.65561C136.382 7.76991 135.939 6.68739 135.939 5.40805C135.939 4.12871 136.382 3.04619 137.268 2.16049C138.153 1.27479 139.236 0.831942 140.515 0.831942C141.745 0.831942 142.779 1.27479 143.615 2.16049C144.501 3.04619 144.944 4.12871 144.944 5.40805C144.944 6.68739 144.501 7.76991 143.615 8.65561C142.779 9.54131 141.745 9.98416 140.515 9.98416ZM143.763 16.5531V57H137.046V16.5531H143.763ZM152.701 36.6289C152.701 32.4957 153.537 28.8791 155.21 25.7791C156.883 22.63 159.171 20.1943 162.074 18.4721C165.027 16.7499 168.299 15.8888 171.891 15.8888C175.434 15.8888 178.509 16.6515 181.117 18.1769C183.725 19.7022 185.668 21.6213 186.948 23.9339V16.5531H193.738V57H186.948V49.4716C185.619 51.8334 183.626 53.8016 180.969 55.3762C178.361 56.9016 175.311 57.6643 171.817 57.6643C168.225 57.6643 164.977 56.7786 162.074 55.0072C159.171 53.2358 156.883 50.7509 155.21 47.5525C153.537 44.3542 152.701 40.713 152.701 36.6289ZM186.948 36.7027C186.948 33.652 186.333 30.9949 185.102 28.7315C183.872 26.468 182.199 24.7458 180.083 23.5649C178.017 22.3347 175.729 21.7197 173.219 21.7197C170.71 21.7197 168.422 22.3101 166.355 23.4911C164.289 24.672 162.64 26.3942 161.41 28.6576C160.18 30.9211 159.565 33.5782 159.565 36.6289C159.565 39.7289 160.18 42.4352 161.41 44.7478C162.64 47.0113 164.289 48.7581 166.355 49.9882C168.422 51.1692 170.71 51.7596 173.219 51.7596C175.729 51.7596 178.017 51.1692 180.083 49.9882C182.199 48.7581 183.872 47.0113 185.102 44.7478C186.333 42.4352 186.948 39.7535 186.948 36.7027ZM211.805 2.38192V57H205.088V2.38192H211.805ZM295.112 5.92471V57H288.395V18.915L271.419 57H266.696L249.646 18.8411V57H242.929V5.92471H250.163L269.058 48.143L287.952 5.92471H295.112ZM343.407 35.2266C343.407 36.5059 343.333 37.8591 343.185 39.286H310.857C311.103 43.2717 312.456 46.3962 314.917 48.6597C317.426 50.8739 320.452 51.981 323.995 51.981C326.898 51.981 329.309 51.3168 331.228 49.9882C333.197 48.6105 334.574 46.7899 335.362 44.5264H342.595C341.512 48.4136 339.347 51.5874 336.1 54.0477C332.852 56.4587 328.817 57.6643 323.995 57.6643C320.157 57.6643 316.713 56.8032 313.662 55.081C310.66 53.3588 308.299 50.9231 306.576 47.774C304.854 44.5756 303.993 40.8852 303.993 36.7027C303.993 32.5203 304.83 28.8545 306.503 25.7053C308.176 22.5562 310.513 20.1451 313.514 18.4721C316.565 16.7499 320.059 15.8888 323.995 15.8888C327.833 15.8888 331.228 16.7253 334.181 18.3983C337.133 20.0713 339.396 22.3839 340.971 25.3363C342.595 28.2394 343.407 31.5362 343.407 35.2266ZM336.469 33.8242C336.469 31.2655 335.903 29.0759 334.771 27.2553C333.639 25.3855 332.089 23.9831 330.121 23.0482C328.202 22.0641 326.062 21.5721 323.7 21.5721C320.305 21.5721 317.402 22.6546 314.99 24.8196C312.629 26.9847 311.275 29.9862 310.931 33.8242H336.469ZM349.763 36.6289C349.763 32.4957 350.599 28.8791 352.272 25.7791C353.945 22.63 356.233 20.1943 359.136 18.4721C362.089 16.7499 365.386 15.8888 369.027 15.8888C372.176 15.8888 375.104 16.6269 377.81 18.1031C380.516 19.53 382.583 21.4244 384.01 23.7863V2.38192H390.8V57H384.01V49.3978C382.681 51.8088 380.713 53.8016 378.105 55.3762C375.497 56.9016 372.447 57.6643 368.953 57.6643C365.361 57.6643 362.089 56.7786 359.136 55.0072C356.233 53.2358 353.945 50.7509 352.272 47.5525C350.599 44.3542 349.763 40.713 349.763 36.6289ZM384.01 36.7027C384.01 33.652 383.395 30.9949 382.165 28.7315C380.934 26.468 379.261 24.7458 377.146 23.5649C375.079 22.3347 372.791 21.7197 370.281 21.7197C367.772 21.7197 365.484 22.3101 363.417 23.4911C361.351 24.672 359.702 26.3942 358.472 28.6576C357.242 30.9211 356.627 33.5782 356.627 36.6289C356.627 39.7289 357.242 42.4352 358.472 44.7478C359.702 47.0113 361.351 48.7581 363.417 49.9882C365.484 51.1692 367.772 51.7596 370.281 51.7596C372.791 51.7596 375.079 51.1692 377.146 49.9882C379.261 48.7581 380.934 47.0113 382.165 44.7478C383.395 42.4352 384.01 39.7535 384.01 36.7027ZM405.619 9.98416C404.34 9.98416 403.258 9.54131 402.372 8.65561C401.486 7.76991 401.043 6.68739 401.043 5.40805C401.043 4.12871 401.486 3.04619 402.372 2.16049C403.258 1.27479 404.34 0.831942 405.619 0.831942C406.85 0.831942 407.883 1.27479 408.719 2.16049C409.605 3.04619 410.048 4.12871 410.048 5.40805C410.048 6.68739 409.605 7.76991 408.719 8.65561C407.883 9.54131 406.85 9.98416 405.619 9.98416ZM408.867 16.5531V57H402.15V16.5531H408.867ZM417.805 36.6289C417.805 32.4957 418.641 28.8791 420.314 25.7791C421.987 22.63 424.275 20.1943 427.178 18.4721C430.131 16.7499 433.403 15.8888 436.995 15.8888C440.538 15.8888 443.613 16.6515 446.221 18.1769C448.829 19.7022 450.772 21.6213 452.052 23.9339V16.5531H458.842V57H452.052V49.4716C450.723 51.8334 448.73 53.8016 446.073 55.3762C443.465 56.9016 440.415 57.6643 436.921 57.6643C433.329 57.6643 430.082 56.7786 427.178 55.0072C424.275 53.2358 421.987 50.7509 420.314 47.5525C418.641 44.3542 417.805 40.713 417.805 36.6289ZM452.052 36.7027C452.052 33.652 451.437 30.9949 450.207 28.7315C448.976 26.468 447.303 24.7458 445.188 23.5649C443.121 22.3347 440.833 21.7197 438.323 21.7197C435.814 21.7197 433.526 22.3101 431.459 23.4911C429.393 24.672 427.744 26.3942 426.514 28.6576C425.284 30.9211 424.669 33.5782 424.669 36.6289C424.669 39.7289 425.284 42.4352 426.514 44.7478C427.744 47.0113 429.393 48.7581 431.459 49.9882C433.526 51.1692 435.814 51.7596 438.323 51.7596C440.833 51.7596 443.121 51.1692 445.188 49.9882C447.303 48.7581 448.976 47.0113 450.207 44.7478C451.437 42.4352 452.052 39.7535 452.052 36.7027Z" fill="black"/>
</svg>
