<?xml version="1.0" encoding="UTF-8"?><svg id="Layer_2" xmlns="http://www.w3.org/2000/svg" xmlns:xlink="http://www.w3.org/1999/xlink" viewBox="0 0 499.12 87.63"><defs><style>.cls-1{fill:url(#linear-gradient);opacity:.3;}</style><linearGradient id="linear-gradient" x1="0" y1="43.81" x2="499.12" y2="43.81" gradientUnits="userSpaceOnUse"><stop offset="0" stop-color="#f8fbf8"/><stop offset=".81" stop-color="#b7d1ed"/></linearGradient></defs><g id="Layer_1-2"><path class="cls-1" d="M486.26,30.11c-34.85-2.2-94.3-.88-163.97-2.2-69.65-1.33-105.91,2.65-130.57-3.98-24.69-6.63-35.55-4-53.69-6.22-18.14-2.2-10.15-3.08-3.64-5.28,6.52-2.22-13.07-4.44-54.38-5.77C38.64,5.34,35.74,2.26,13.97,.04-7.79-2.18,2.37,87.63,2.37,87.63c41.35,0,44.97-2.67,55.14-3.1,10.15-.45,81.95-2.2,67.47-5.75-14.52-3.55-.74-4.89,10.85-5.32,11.64-.45,24.69,2.67,39.92,3.55,15.24,.88,95.76-9.29,77.63-15.49-18.13-6.18,13.05-4.85,29.03-4.85s100.83-3.55,82.69-7.05c-18.13-3.59-7.97-4.44,25.39-6.24,33.39-1.75,38.44-4.42,62.41-3.98,23.93,.45,68.16-7.07,33.36-9.29ZM57.51,67.71c-8.72,.88-12.97-1.71-2.93-2.65,9.44-.9,11.63,1.75,2.93,2.65Zm21.01-35.81c-10.16,2.2-10.86,.88-32.62,1.32-21.77,.43-39.17-3.12-32.66-6.64,6.51-3.55,28.31-2.57,45.72-3.1,30.46-.88,29.74,6.2,19.57,8.42Zm50.07,11.48c-11.61,1.79-15.44-4.59-4.36-4.85,18.88-.45,15.96,3.1,4.36,4.85Zm45.7,11.52c-23.23-1.77,6.61-5.34,18.15-4.42,38.44,3.1,5.06,6.2-18.15,4.42Z"/></g></svg>