<?xml version="1.0" encoding="UTF-8"?><svg id="Layer_2" xmlns="http://www.w3.org/2000/svg" xmlns:xlink="http://www.w3.org/1999/xlink" viewBox="0 0 803.59 64.05"><defs><style>.cls-1{fill:url(#linear-gradient);opacity:.3;}</style><linearGradient id="linear-gradient" x1="0" y1="32.03" x2="803.59" y2="32.03" gradientUnits="userSpaceOnUse"><stop offset="0" stop-color="#f8fbf8"/><stop offset=".81" stop-color="#b7d1ed"/></linearGradient></defs><g id="Layer_1-2"><path class="cls-1" d="M784.31,28.53c-54.36-2.83-75.82-1.18-120.76-3.24-44.97-2.08-125.5-2.85-161.71-2.85s2.69-6.11-55.7-6.11-3.33-3.71,9.37-4.95c12.79-1.2,96-13.49-39.54-11.05-67.16,1.22-157.02,5.71-114.09,9.01,42.96,3.28,75.15,4.08,59.05,8.99-16.09,4.89-10.72,6.52,14.78,7.38,25.5,.8,49.62,3.24-14.78,4.1-64.39,.77-26.52-5.52-91.91-2.45-65.44,3.02-61.72,4.46-54.37,6.93,7.4,2.47,12.75,4.51-28.88,4.93-41.55,.39-148.9-.02-143.52,3.26,5.31,3.26-14.12,2.85-28.17,3.65-14.13,.82-30.21,6.58,20.76,7.83,51.01,1.18,101.33-4.55,116.08,0,14.73,4.46,10.05,7.77,46.96,6.5,36.9-1.2,96.64-2.45,118.09,.43,21.47,2.87,44.96,5.75,93.26-.82,48.29-6.58,88.6-15.98,138.22-17.18,49.64-1.24,115.43,2.85,167.08-.41,51.66-3.26,124.09-11.05,69.77-13.94Zm-469.02,14.76c-20.11-1.65-22.14-6.54-6.02-6.54s16.8,.75,44.98,1.67c38.91,1.18-18.81,6.48-38.95,4.87Z"/></g></svg>