<?xml version="1.0" encoding="UTF-8"?><svg id="Layer_2" xmlns="http://www.w3.org/2000/svg" xmlns:xlink="http://www.w3.org/1999/xlink" viewBox="0 0 602.34 56.22"><defs><style>.cls-1{fill:url(#linear-gradient);opacity:.3;}</style><linearGradient id="linear-gradient" x1="0" y1="28.11" x2="602.34" y2="28.11" gradientUnits="userSpaceOnUse"><stop offset="0" stop-color="#f8fbf8"/><stop offset=".81" stop-color="#b7d1ed"/></linearGradient></defs><g id="Layer_1-2"><path class="cls-1" d="M552.21,31.3c-74.63-5.97-129.72-9.32-81.39-10.8,48.36-1.49,124.28-8.95,74.08-10.09-50.21-1.1-108.34,4.14-148.73,2.24-40.4-1.88,7.96-3.34-43.47-4.12-51.4-.71-78.92-.71-56.28-3.71,22.65-3-4.3-4.1-20.81-4.48C251.77-.19,240.72-.03,193,.34c-47.74,.39-62.42,6.34-39.18,8.58,23.26,2.24,28.77,4.1-41.6,7.09C41.85,19.01-26.1,21.6,10.01,24.98c36.1,3.34,37.33,2.59,34.27,4.83-3.05,2.24,4.91,2.61,22.65,2.24,17.76-.35,51.41,2.61,77.71,2.98,26.34,.39,53.87,4.12,37.33,5.97-16.5,1.88-53.83,6.34-16.5,8.6,37.32,2.24,50.16,4.83,84.47,6.34,34.23,1.49,117.47-3.38,81.38-7.09-36.12-3.73-72.23-7.46-20.19-9.7,52.01-2.24,58.12-3.73,41.58-5.61-16.5-1.83,17.74-.73,43.47-.37,25.69,.37,69.16,4.1,47.73,5.61-21.41,1.47-26.93,7.09-7.95,8.95,18.98,1.88-9.18,5.59,28.76,4.83,37.94-.71,77.12,0,108.31-2.96,31.23-3,53.86-12.33-20.81-18.3Zm-342.39-1.85c-21.71,0-7.63-.73-23.56-2.24-15.92-1.47,15.01-3.32,19.59-3.16,16.53,.55,25.69,5.4,3.98,5.4Zm22.97,3.18c-11.32-.39-3.39-2.43,1.83-2.24,15.6,.57,9.47,2.63-1.83,2.24Zm246,9.52c-11.3-.2-2.74-4.75,12.23-4.12,17.75,.75-.92,4.3-12.23,4.12Zm36.42-1.14c-5.83,.2-6.14-1.75-1.53-1.67,9.5,.18,7.36,1.49,1.53,1.67Z"/></g></svg>